<?xml version="1.0" encoding="UTF-8" standalone="no"?><!DOCTYPE svg PUBLIC "-//W3C//DTD SVG 1.1//EN" "http://www.w3.org/Graphics/SVG/1.1/DTD/svg11.dtd"><svg width="100%" height="100%" viewBox="0 0 174 203" version="1.1" xmlns="http://www.w3.org/2000/svg" xmlns:xlink="http://www.w3.org/1999/xlink" xml:space="preserve" xmlns:serif="http://www.serif.com/" style="fill-rule:evenodd;clip-rule:evenodd;stroke-linejoin:round;stroke-miterlimit:2;"><g id="Layer-1" serif:id="Layer 1"><path d="M85.817,15.779c-24.396,13.979 -48.796,27.959 -73.192,41.938l-0,87.671c24.433,13.979 48.871,27.962 73.304,41.941c25.104,-14.091 50.217,-28.183 75.325,-42.275l0,-87c-25.146,-14.091 -50.296,-28.183 -75.437,-42.275m-0,-15.279c29.22,16.617 58.45,33.238 87.675,49.858l-0,102.392c-29.3,16.583 -58.605,33.167 -87.9,49.75c-28.363,-16.433 -56.73,-32.871 -85.092,-49.304l-0,-103.288c28.437,-16.466 56.879,-32.941 85.317,-49.408" style="fill:#091d2f;stroke:#fff;stroke-width:1px;"/><path d="M64.211,67.619l29.663,0c6.416,0 11.462,1.444 15.137,4.331c3.675,2.888 5.513,6.869 5.513,11.944c-0,2.975 -0.686,5.6 -2.056,7.875c-1.371,2.275 -3.282,4.025 -5.732,5.25c2.859,1.167 5.192,3.106 7,5.819c1.809,2.712 2.713,5.702 2.713,8.969c-0,5.366 -1.984,9.552 -5.95,12.556c-3.967,3.004 -9.509,4.506 -16.625,4.506l-29.663,0l0,-61.25Zm30.713,50.663c2.975,-0 5.308,-0.715 7,-2.144c1.691,-1.429 2.537,-3.398 2.537,-5.906c0,-2.509 -0.831,-4.448 -2.493,-5.819c-1.663,-1.371 -3.982,-2.056 -6.957,-2.056l-18.9,-0l0,15.925l18.813,-0Zm-0.788,-25.988c2.684,0 4.769,-0.627 6.257,-1.881c1.487,-1.254 2.231,-2.99 2.231,-5.206c-0,-2.275 -0.744,-4.04 -2.231,-5.294c-1.488,-1.254 -3.573,-1.881 -6.257,-1.881l-18.025,-0l0,14.262l18.025,0Z" style="fill:#091d2f;fill-rule:nonzero;stroke:#fff;stroke-width:1px;"/><path d="M57.036,137.618l59.763,-0l-59.763,-0Z" style="fill-rule:nonzero;stroke:#091d2f;stroke-width:4.38px;stroke-linejoin:miter;stroke-miterlimit:10;"/></g></svg>